<svg width="120" height="120" viewBox="0 0 120 120" fill="none" xmlns="http://www.w3.org/2000/svg">
<path d="M120 59.9999C120 93.1498 93.1498 120 59.9999 120C26.8499 120 0 93.1498 0 59.9999C0 26.85 26.8499 0 59.9999 0C93.1498 0 120 26.85 120 59.9999Z" fill="url(#paint0_radial_1364_17)"/>
<path d="M44.0996 92.2494C44.0996 95.5494 51.1496 94.9494 59.9996 94.9494C68.6996 94.9494 75.8996 95.3994 75.8996 92.2494C75.8996 88.3494 68.8496 85.6494 59.9996 85.6494C51.1496 85.7994 44.0996 88.3494 44.0996 92.2494Z" fill="url(#paint1_linear_1364_17)"/>
<path d="M25.3516 68.2497C25.3516 61.4997 30.0016 55.9497 35.8515 55.9497C41.7015 55.9497 46.3515 61.4997 46.3515 68.2497C46.3515 71.0997 45.6015 73.6497 44.1015 75.7497C43.5015 76.6497 42.4516 77.3997 41.2516 77.6997C39.9016 77.9997 37.9516 78.2997 35.7016 78.2997C33.4516 78.2997 31.5016 77.9997 30.1516 77.6997C28.9516 77.3997 28.0516 76.7997 27.3016 75.7497C26.1016 73.4997 25.3516 70.9497 25.3516 68.2497Z" fill="url(#paint2_radial_1364_17)"/>
<path d="M73.502 68.2497C73.502 61.4997 78.1519 55.9497 84.0019 55.9497C89.8519 55.9497 94.5019 61.4997 94.5019 68.2497C94.5019 71.0997 93.6019 73.6497 92.2519 75.7497C91.6519 76.6497 90.6019 77.3997 89.4019 77.6997C87.6019 78.1497 85.8019 78.2997 83.8519 78.2997C81.6019 78.2997 79.652 77.9997 78.302 77.6997C77.102 77.3997 76.2019 76.7997 75.4519 75.7497C74.2519 73.4997 73.502 70.9497 73.502 68.2497Z" fill="url(#paint3_radial_1364_17)"/>
<path d="M37.2012 64.4997C37.2012 64.6497 37.2012 64.7997 37.2012 65.0997C37.2012 66.5997 35.8512 67.7997 34.2012 67.7997C32.5512 67.7997 31.2012 66.5997 31.2012 65.0997C31.2012 64.4997 31.3512 63.8997 31.8012 63.4497C33.6012 63.7497 35.4012 64.0497 37.2012 64.4997Z" fill="#4F4F67"/>
<path d="M81.6016 67.7997C79.9516 67.7997 78.7516 66.5997 78.6016 65.2497C80.5516 64.9497 82.5016 64.6497 84.3016 64.1997C84.4516 64.4997 84.4516 64.7997 84.4516 65.0997C84.6016 66.4497 83.2516 67.7997 81.6016 67.7997Z" fill="#4F4F67"/>
<path d="M49.5022 56.8504C52.8021 57.1504 52.2021 63.0004 49.3521 63.0004C37.3521 61.6504 25.9522 58.2004 21.3022 55.9504C19.8022 55.2004 19.3522 54.1504 19.6522 52.9504C19.9522 51.6004 21.3022 50.7004 22.0522 51.0004C33.7522 54.1504 37.9522 55.6504 49.5022 56.8504Z" fill="url(#paint4_linear_1364_17)"/>
<path d="M70.353 56.8504C67.053 57.1504 67.6531 63.0004 70.5031 63.0004C82.5031 61.6504 93.9031 58.2004 98.553 55.9504C100.053 55.2004 100.503 54.1504 100.203 52.9504C99.903 51.6004 98.553 50.7004 97.803 51.0004C86.2531 54.1504 82.053 55.6504 70.353 56.8504Z" fill="url(#paint5_linear_1364_17)"/>
<defs>
<radialGradient id="paint0_radial_1364_17" cx="0" cy="0" r="1" gradientUnits="userSpaceOnUse" gradientTransform="translate(42.0603 40.1242) rotate(76.293) scale(78.6551 78.6551)">
<stop stop-color="#FFB06C"/>
<stop offset="1" stop-color="#FD4545"/>
</radialGradient>
<linearGradient id="paint1_linear_1364_17" x1="59.9996" y1="87.027" x2="59.9996" y2="95.0839" gradientUnits="userSpaceOnUse">
<stop stop-color="#3F1D04"/>
<stop offset="1" stop-color="#7E2307"/>
</linearGradient>
<radialGradient id="paint2_radial_1364_17" cx="0" cy="0" r="1" gradientUnits="userSpaceOnUse" gradientTransform="translate(35.8889 67.1247) scale(10.8563 10.8563)">
<stop stop-color="#2C445F"/>
<stop offset="0.9792" stop-color="#191A33"/>
</radialGradient>
<radialGradient id="paint3_radial_1364_17" cx="0" cy="0" r="1" gradientUnits="userSpaceOnUse" gradientTransform="translate(84.1094 67.1248) scale(10.864 10.864)">
<stop stop-color="#2C445F"/>
<stop offset="0.9792" stop-color="#191A33"/>
</radialGradient>
<linearGradient id="paint4_linear_1364_17" x1="35.6533" y1="64.4563" x2="35.6533" y2="46.9588" gradientUnits="userSpaceOnUse">
<stop stop-color="#9A2F00"/>
<stop offset="1" stop-color="#D44800"/>
</linearGradient>
<linearGradient id="paint5_linear_1364_17" x1="84.2019" y1="64.4563" x2="84.2019" y2="46.9588" gradientUnits="userSpaceOnUse">
<stop stop-color="#9A2F00"/>
<stop offset="1" stop-color="#D44800"/>
</linearGradient>
</defs>
</svg>
