<svg width="100" height="100" viewBox="0 0 100 100" fill="none" xmlns="http://www.w3.org/2000/svg">
<rect width="100" height="100" rx="20" fill="white"/>
<path fill-rule="evenodd" clip-rule="evenodd" d="M50.5 62.6963C49.1193 62.6963 48 61.577 48 60.1963V39.1963C48 37.8156 49.1193 36.6963 50.5 36.6963C51.8807 36.6963 53 37.8156 53 39.1963V60.1963C53 61.577 51.8807 62.6963 50.5 62.6963Z" fill="#0966FF"/>
<path fill-rule="evenodd" clip-rule="evenodd" d="M76.5 62.6963C75.1193 62.6963 74 61.577 74 60.1963V39.1963C74 37.8156 75.1193 36.6963 76.5 36.6963C77.8807 36.6963 79 37.8156 79 39.1963V60.1963C79 61.577 77.8807 62.6963 76.5 62.6963Z" fill="#0966FF"/>
<path fill-rule="evenodd" clip-rule="evenodd" d="M23.5 62.6963C22.1193 62.6963 21 61.577 21 60.1963V39.1963C21 37.8156 22.1193 36.6963 23.5 36.6963C24.8807 36.6963 26 37.8156 26 39.1963V60.1963C26 61.577 24.8807 62.6963 23.5 62.6963Z" fill="#0966FF"/>
<path fill-rule="evenodd" clip-rule="evenodd" d="M36.5 71.6963C35.1193 71.6963 34 70.577 34 69.1963V30.1963C34 28.8156 35.1193 27.6963 36.5 27.6963C37.8807 27.6963 39 28.8156 39 30.1963V69.1963C39 70.577 37.8807 71.6963 36.5 71.6963Z" fill="#0966FF"/>
<path fill-rule="evenodd" clip-rule="evenodd" d="M63.5 71.6963C62.1193 71.6963 61 70.577 61 69.1963V30.1963C61 28.8156 62.1193 27.6963 63.5 27.6963C64.8807 27.6963 66 28.8156 66 30.1963V69.1963C66 70.577 64.8807 71.6963 63.5 71.6963Z" fill="#0966FF"/>
</svg>
