<svg width="120" height="120" viewBox="0 0 120 120" fill="none" xmlns="http://www.w3.org/2000/svg">
<path fill-rule="evenodd" clip-rule="evenodd" d="M120.001 59.9999C120.001 92.9998 93.0019 120 60.0026 120C27.0033 120 0.00390625 92.9998 0.00390625 59.9999C0.00390625 27 27.0033 0 60.0026 0C93.0019 0 120.001 27 120.001 59.9999Z" fill="url(#paint0_radial_1364_65)"/>
<path fill-rule="evenodd" clip-rule="evenodd" d="M120.001 59.9999C120.001 92.9998 93.0019 120 60.0026 120C27.0033 120 0.00390625 92.9998 0.00390625 59.9999C0.00390625 27 27.0033 0 60.0026 0C93.0019 0 120.001 27 120.001 59.9999Z" fill="url(#paint1_radial_1364_65)"/>
<path fill-rule="evenodd" clip-rule="evenodd" d="M72.7502 44.25C72.0002 42 48.0007 42 47.2507 44.25C46.5008 46.5 51.7507 49.5 60.0005 49.5C68.2503 49.5 73.5002 46.5 72.7502 44.25Z" fill="url(#paint2_linear_1364_65)"/>
<path fill-rule="evenodd" clip-rule="evenodd" d="M72.7509 63.7502C57.0012 59.2502 51.7513 69.7502 51.7513 69.7502C51.7513 69.7502 53.2513 57.7502 37.5016 52.5002C22.502 48.0002 13.5022 62.2502 12.7522 70.5002C11.2522 89.2501 27.7518 110.25 33.7517 117.75C34.5017 120 36.7516 120 39.0016 120C48.0014 117.75 73.5008 109.5 83.2506 93.0001C87.0006 84.7501 87.7505 68.2502 72.7509 63.7502Z" fill="url(#paint3_linear_1364_65)"/>
<path fill-rule="evenodd" clip-rule="evenodd" d="M72.7509 63.7502C57.0012 59.2502 51.7513 69.7502 51.7513 69.7502C51.7513 69.7502 53.2513 57.7502 37.5016 52.5002C22.502 48.0002 13.5022 62.2502 12.7522 70.5002C11.2522 89.2501 27.7518 110.25 33.7517 117.75C34.5017 120 36.7516 120 39.0016 120C48.0014 117.75 73.5008 109.5 83.2506 93.0001C87.0006 84.7501 87.7505 68.2502 72.7509 63.7502Z" fill="url(#paint4_radial_1364_65)"/>
<path fill-rule="evenodd" clip-rule="evenodd" d="M72.7509 63.7502C57.0012 59.2502 51.7513 69.7502 51.7513 69.7502C51.7513 69.7502 53.2513 57.7502 37.5016 52.5002C22.502 48.0002 13.5022 62.2502 12.7522 70.5002C11.2522 89.2501 27.7518 110.25 33.7517 117.75C34.5017 120 36.7516 120 39.0016 120C48.0014 117.75 73.5008 109.5 83.2506 93.0001C87.0006 84.7501 87.7505 68.2502 72.7509 63.7502Z" fill="url(#paint5_radial_1364_65)"/>
<path fill-rule="evenodd" clip-rule="evenodd" d="M72.7509 63.7502C57.0012 59.2502 51.7513 69.7502 51.7513 69.7502C51.7513 69.7502 53.2513 57.7502 37.5016 52.5002C22.502 48.0002 13.5022 62.2502 12.7522 70.5002C11.2522 89.2501 27.7518 110.25 33.7517 117.75C34.5017 120 36.7516 120 39.0016 120C48.0014 117.75 73.5008 109.5 83.2506 93.0001C87.0006 84.7501 87.7505 68.2502 72.7509 63.7502Z" fill="url(#paint6_radial_1364_65)"/>
<path fill-rule="evenodd" clip-rule="evenodd" d="M72.7509 63.7502C57.0012 59.2502 51.7513 69.7502 51.7513 69.7502C51.7513 69.7502 53.2513 57.7502 37.5016 52.5002C22.502 48.0002 13.5022 62.2502 12.7522 70.5002C11.2522 89.2501 27.7518 110.25 33.7517 117.75C34.5017 120 36.7516 120 39.0016 120C48.0014 117.75 73.5008 109.5 83.2506 93.0001C87.0006 84.7501 87.7505 68.2502 72.7509 63.7502Z" fill="url(#paint7_radial_1364_65)"/>
<path fill-rule="evenodd" clip-rule="evenodd" d="M72.7509 63.7502C57.0012 59.2502 51.7513 69.7502 51.7513 69.7502C51.7513 69.7502 53.2513 57.7502 37.5016 52.5002C22.502 48.0002 13.5022 62.2502 12.7522 70.5002C11.2522 89.2501 27.7518 110.25 33.7517 117.75C34.5017 120 36.7516 120 39.0016 120C48.0014 117.75 73.5008 109.5 83.2506 93.0001C87.0006 84.7501 87.7505 68.2502 72.7509 63.7502Z" fill="url(#paint8_radial_1364_65)"/>
<path fill-rule="evenodd" clip-rule="evenodd" d="M72.7509 63.7502C57.0012 59.2502 51.7513 69.7502 51.7513 69.7502C51.7513 69.7502 53.2513 57.7502 37.5016 52.5002C22.502 48.0002 13.5022 62.2502 12.7522 70.5002C11.2522 89.2501 27.7518 110.25 33.7517 117.75C34.5017 120 36.7516 120 39.0016 120C48.0014 117.75 73.5008 109.5 83.2506 93.0001C87.0006 84.7501 87.7505 68.2502 72.7509 63.7502Z" fill="url(#paint9_radial_1364_65)"/>
<path fill-rule="evenodd" clip-rule="evenodd" d="M36.0014 73.4998C36.0014 73.4998 36.0014 73.4998 36.0014 72.7498C36.7513 71.9998 38.2513 71.2498 39.0013 70.4998C42.0012 68.2498 40.5013 64.4998 36.7513 65.2498C36.0014 65.2498 27.0016 68.2498 21.0017 65.9998C15.0018 63.7498 14.2518 61.4998 9.75193 57.7498C7.05199 55.0498 2.5521 53.0998 0.152151 55.7998C-0.447836 64.1998 0.752101 72.1498 3.30205 79.6498C4.80201 82.0498 6.602 84.2998 9.00195 86.2498C30.0015 102.75 48.7511 93.7497 49.5011 81.7498C50.2511 72.7498 39.0013 73.4998 36.0014 73.4998Z" fill="url(#paint10_radial_1364_65)"/>
<path d="M120.003 59.9998C118.353 56.2499 110.103 52.9499 107.253 58.6498C101.253 69.8998 99.0033 81.1498 84.7536 82.6498C80.2537 83.3998 74.2538 81.8998 69.7539 81.1498C66.004 80.3998 65.254 84.8998 68.254 87.1498C69.7539 87.8998 70.5039 88.6498 72.0039 89.3998V90.1498C68.254 90.1498 57.7542 91.6498 60.0042 100.65C62.5541 111.15 85.0536 114.75 102.303 102.6C113.253 91.6498 120.003 76.6498 120.003 59.9998Z" fill="url(#paint11_radial_1364_65)"/>
<path fill-rule="evenodd" clip-rule="evenodd" d="M76.8027 9.44983C73.2028 10.0498 73.0528 14.8498 75.9027 14.8498C83.4026 14.8498 89.8524 17.5498 93.0024 19.9498C95.5523 21.5998 96.7523 18.2998 95.5523 16.6498C91.6524 11.8498 83.1026 8.39983 76.8027 9.44983Z" fill="url(#paint12_radial_1364_65)"/>
<path fill-rule="evenodd" clip-rule="evenodd" d="M42.7546 9.44983C46.3545 10.0498 46.5045 14.8498 43.6546 14.8498C36.1548 14.8498 29.7049 17.5498 26.5549 19.9498C24.005 21.5998 22.8051 18.2998 24.005 16.6498C28.0549 11.8498 36.4548 8.39983 42.7546 9.44983Z" fill="url(#paint13_radial_1364_65)"/>
<path fill-rule="evenodd" clip-rule="evenodd" d="M75.4473 31.0508C75.4473 36.3008 78.4472 37.8007 82.9471 38.5507C87.447 39.3007 91.1969 37.0508 91.1969 31.0508C91.1969 26.5508 88.947 20.5508 82.9471 20.5508C77.6972 20.5508 75.4473 26.5508 75.4473 31.0508Z" fill="url(#paint14_radial_1364_65)"/>
<path d="M81.0003 29.8506C82.5743 29.8506 83.8502 28.5746 83.8502 27.0006C83.8502 25.4266 82.5743 24.1506 81.0003 24.1506C79.4263 24.1506 78.1504 25.4266 78.1504 27.0006C78.1504 28.5746 79.4263 29.8506 81.0003 29.8506Z" fill="#4E506A"/>
<path fill-rule="evenodd" clip-rule="evenodd" d="M75.4473 31.0508C75.4473 36.3008 78.4472 37.8007 82.9471 38.5507C87.447 39.3007 91.1969 37.0508 91.1969 31.0508C91.1969 26.5508 88.947 20.5508 82.9471 20.5508C77.6972 20.5508 75.4473 26.5508 75.4473 31.0508Z" fill="url(#paint15_radial_1364_65)"/>
<path d="M81.0003 29.8506C82.5743 29.8506 83.8502 28.5746 83.8502 27.0006C83.8502 25.4266 82.5743 24.1506 81.0003 24.1506C79.4263 24.1506 78.1504 25.4266 78.1504 27.0006C78.1504 28.5746 79.4263 29.8506 81.0003 29.8506Z" fill="#4E506A"/>
<path fill-rule="evenodd" clip-rule="evenodd" d="M44.0993 31.0508C44.0993 36.3008 41.0993 37.8007 36.5994 38.5507C32.0995 39.3007 28.3496 37.0508 28.3496 31.0508C28.3496 26.5508 30.5996 20.5508 36.5994 20.5508C41.8493 20.5508 44.0993 26.5508 44.0993 31.0508Z" fill="url(#paint16_radial_1364_65)"/>
<path fill-rule="evenodd" clip-rule="evenodd" d="M44.0993 31.0508C44.0993 36.3008 41.0993 37.8007 36.5994 38.5507C32.0995 39.3007 28.3496 37.0508 28.3496 31.0508C28.3496 26.5508 30.5996 20.5508 36.5994 20.5508C41.8493 20.5508 44.0993 26.5508 44.0993 31.0508Z" fill="url(#paint17_radial_1364_65)"/>
<path d="M33.0003 29.8506C34.5743 29.8506 35.8502 28.5746 35.8502 27.0006C35.8502 25.4266 34.5743 24.1506 33.0003 24.1506C31.4263 24.1506 30.1504 25.4266 30.1504 27.0006C30.1504 28.5746 31.4263 29.8506 33.0003 29.8506Z" fill="#4E506A"/>
<defs>
<radialGradient id="paint0_radial_1364_65" cx="0" cy="0" r="1" gradientUnits="userSpaceOnUse" gradientTransform="translate(47.6957 31.1383) scale(89.5206 89.5224)">
<stop stop-color="#FFED85"/>
<stop offset="0.1898" stop-color="#FFE180"/>
<stop offset="0.5295" stop-color="#FFC273"/>
<stop offset="0.9773" stop-color="#FF915E"/>
<stop offset="1" stop-color="#FF8E5D"/>
</radialGradient>
<radialGradient id="paint1_radial_1364_65" cx="0" cy="0" r="1" gradientUnits="userSpaceOnUse" gradientTransform="translate(47.9312 35.3752) scale(55.7262 55.7273)">
<stop stop-color="#FFEA84" stop-opacity="0"/>
<stop offset="1" stop-color="#F08423" stop-opacity="0.34"/>
</radialGradient>
<linearGradient id="paint2_linear_1364_65" x1="60.0005" y1="49.5486" x2="60.0005" y2="42.6111" gradientUnits="userSpaceOnUse">
<stop stop-color="#3F1D04"/>
<stop offset="1" stop-color="#7E2307"/>
</linearGradient>
<linearGradient id="paint3_linear_1364_65" x1="50.5869" y1="73.1189" x2="35.3569" y2="122.185" gradientUnits="userSpaceOnUse">
<stop stop-color="#F34462"/>
<stop offset="1" stop-color="#CC0820"/>
</linearGradient>
<radialGradient id="paint4_radial_1364_65" cx="0" cy="0" r="1" gradientTransform="matrix(18.5091 6.88096 -6.88083 18.5094 66.4004 82.0926)" gradientUnits="userSpaceOnUse">
<stop stop-color="#FF7091" stop-opacity="0.7"/>
<stop offset="1" stop-color="#FE6D8E" stop-opacity="0"/>
</radialGradient>
<radialGradient id="paint5_radial_1364_65" cx="0" cy="0" r="1" gradientTransform="matrix(18.5091 6.88096 -6.88083 18.5094 32.1086 72.1456)" gradientUnits="userSpaceOnUse">
<stop stop-color="#FF7091" stop-opacity="0.7"/>
<stop offset="1" stop-color="#FE6D8E" stop-opacity="0"/>
</radialGradient>
<radialGradient id="paint6_radial_1364_65" cx="0" cy="0" r="1" gradientTransform="matrix(-3.41209 16.6081 -22.8693 -4.69868 29.9722 88.3197)" gradientUnits="userSpaceOnUse">
<stop stop-color="#9C0600"/>
<stop offset="1" stop-color="#9C0600" stop-opacity="0"/>
</radialGradient>
<radialGradient id="paint7_radial_1364_65" cx="0" cy="0" r="1" gradientTransform="matrix(8.7884 5.20442 -6.53162 11.0299 85.6972 90.0071)" gradientUnits="userSpaceOnUse">
<stop stop-color="#9C0600" stop-opacity="0.5"/>
<stop offset="1" stop-color="#9C0600" stop-opacity="0"/>
</radialGradient>
<radialGradient id="paint8_radial_1364_65" cx="0" cy="0" r="1" gradientTransform="matrix(8.30969 -3.05065 3.93124 10.7085 15.4804 68.4013)" gradientUnits="userSpaceOnUse">
<stop stop-color="#9C0600" stop-opacity="0.5"/>
<stop offset="1" stop-color="#9C0600" stop-opacity="0"/>
</radialGradient>
<radialGradient id="paint9_radial_1364_65" cx="0" cy="0" r="1" gradientTransform="matrix(9.87048 6.6758 -7.23022 10.6906 67.1139 104.415)" gradientUnits="userSpaceOnUse">
<stop stop-color="#9C0600" stop-opacity="0.999"/>
<stop offset="1" stop-color="#9C0600" stop-opacity="0"/>
</radialGradient>
<radialGradient id="paint10_radial_1364_65" cx="0" cy="0" r="1" gradientUnits="userSpaceOnUse" gradientTransform="translate(-1.19242 56.0298) scale(53.2287 53.2298)">
<stop stop-color="#FF9F64"/>
<stop offset="1" stop-color="#FFE682"/>
</radialGradient>
<radialGradient id="paint11_radial_1364_65" cx="0" cy="0" r="1" gradientUnits="userSpaceOnUse" gradientTransform="translate(115.486 62.4255) scale(68.4645 68.4659)">
<stop stop-color="#FF9F64"/>
<stop offset="1" stop-color="#FFE682"/>
</radialGradient>
<radialGradient id="paint12_radial_1364_65" cx="0" cy="0" r="1" gradientTransform="matrix(0.511506 -3.39725 15.959 2.40291 84.3526 12.247)" gradientUnits="userSpaceOnUse">
<stop stop-color="#E38200"/>
<stop offset="1" stop-color="#D16C00"/>
</radialGradient>
<radialGradient id="paint13_radial_1364_65" cx="0" cy="0" r="1" gradientTransform="matrix(-0.511506 -3.39725 -15.959 2.40291 35.2625 12.2473)" gradientUnits="userSpaceOnUse">
<stop stop-color="#E38200"/>
<stop offset="1" stop-color="#D16C00"/>
</radialGradient>
<radialGradient id="paint14_radial_1364_65" cx="0" cy="0" r="1" gradientUnits="userSpaceOnUse" gradientTransform="translate(83.06 32.3302) rotate(-90) scale(13.9473 13.9478)">
<stop stop-color="#3B426A"/>
<stop offset="0.9792" stop-color="#191A33"/>
</radialGradient>
<radialGradient id="paint15_radial_1364_65" cx="0" cy="0" r="1" gradientUnits="userSpaceOnUse" gradientTransform="translate(83.06 32.3302) rotate(-90) scale(13.9473 13.9478)">
<stop stop-color="#3B426A"/>
<stop offset="0.9792" stop-color="#191A33"/>
</radialGradient>
<radialGradient id="paint16_radial_1364_65" cx="0" cy="0" r="1" gradientUnits="userSpaceOnUse" gradientTransform="translate(36.5441 32.3302) rotate(-90) scale(13.9473 13.9478)">
<stop stop-color="#3B426A"/>
<stop offset="0.9792" stop-color="#191A33"/>
</radialGradient>
<radialGradient id="paint17_radial_1364_65" cx="0" cy="0" r="1" gradientUnits="userSpaceOnUse" gradientTransform="translate(36.5441 32.3302) rotate(-90) scale(13.9473 13.9478)">
<stop stop-color="#3B426A"/>
<stop offset="0.9792" stop-color="#191A33"/>
</radialGradient>
</defs>
</svg>
