<svg width="100" height="100" viewBox="0 0 100 100" fill="none" xmlns="http://www.w3.org/2000/svg">
<rect width="100" height="100" rx="20" fill="white"/>
<path fill-rule="evenodd" clip-rule="evenodd" d="M20 50C20 33.4315 33.4315 20 50 20C66.5685 20 80 33.4315 80 50C80 66.5685 66.5685 80 50 80C33.4315 80 20 66.5685 20 50ZM50 25C36.1929 25 25 36.1929 25 50C25 63.8071 36.1929 75 50 75C63.8071 75 75 63.8071 75 50C75 36.1929 63.8071 25 50 25Z" fill="#0966FF"/>
<path fill-rule="evenodd" clip-rule="evenodd" d="M50.5 35C51.8807 35 53 36.1193 53 37.5V63C53 64.3807 51.8807 65.5 50.5 65.5C49.1193 65.5 48 64.3807 48 63V37.5C48 36.1193 49.1193 35 50.5 35Z" fill="#0966FF"/>
<path fill-rule="evenodd" clip-rule="evenodd" d="M66 49.5C66 50.8807 64.8807 52 63.5 52L38 52C36.6193 52 35.5 50.8807 35.5 49.5C35.5 48.1193 36.6193 47 38 47L63.5 47C64.8807 47 66 48.1193 66 49.5Z" fill="#0966FF"/>
</svg>
