<svg width="100" height="100" viewBox="0 0 100 100" fill="none" xmlns="http://www.w3.org/2000/svg">
<rect width="100" height="100" rx="20" fill="white"/>
<path fill-rule="evenodd" clip-rule="evenodd" d="M26 34.1963C26 26.1882 32.4919 19.6963 40.5 19.6963H58.5C66.5081 19.6963 73 26.1882 73 34.1963V66.1963C73 74.2044 66.5081 80.6963 58.5 80.6963H40.5C32.4919 80.6963 26 74.2044 26 66.1963V34.1963ZM40.5 24.6963C35.2533 24.6963 31 28.9496 31 34.1963V66.1963C31 71.443 35.2533 75.6963 40.5 75.6963H58.5C63.7467 75.6963 68 71.443 68 66.1963V34.1963C68 28.9496 63.7467 24.6963 58.5 24.6963H40.5Z" fill="#0966FF"/>
<path d="M54.5 67.6963C54.5 70.1816 52.4853 72.1963 50 72.1963C47.5147 72.1963 45.5 70.1816 45.5 67.6963C45.5 65.211 47.5147 63.1963 50 63.1963C52.4853 63.1963 54.5 65.211 54.5 67.6963Z" fill="#0966FF"/>
</svg>
