<svg width="100" height="100" viewBox="0 0 100 100" fill="none" xmlns="http://www.w3.org/2000/svg">
<rect width="100" height="100" rx="20" fill="white"/>
<path fill-rule="evenodd" clip-rule="evenodd" d="M20 50C20 33.4315 33.4315 20 50 20C66.5685 20 80 33.4315 80 50C80 66.5685 66.5685 80 50 80C33.4315 80 20 66.5685 20 50ZM50 25C36.1929 25 25 36.1929 25 50C25 63.8071 36.1929 75 50 75C63.8071 75 75 63.8071 75 50C75 36.1929 63.8071 25 50 25Z" fill="#0966FF"/>
<path fill-rule="evenodd" clip-rule="evenodd" d="M46.4859 41.9082C44.1714 39.2346 40.2567 38.633 37.245 40.4932C33.415 42.8588 32.666 48.1152 35.6783 51.4563C42.1935 58.4097 49.8919 64.1508 58.4148 68.4122L65.1183 71.764C66.3532 72.3815 66.8538 73.8831 66.2363 75.1181C65.6188 76.353 64.1171 76.8536 62.8822 76.2361L56.1787 72.8844C47.1194 68.3547 38.9373 62.2511 32.0139 54.8582C32.0046 54.8482 31.9953 54.8382 31.9862 54.8281C26.8599 49.1715 28.1227 40.2507 34.6176 36.2392C38.9902 33.5384 44.4869 33.9022 48.436 36.9144C52.4922 33.9279 58.0915 33.6947 62.4402 36.5485C68.4494 40.4921 69.8495 48.7539 65.4117 54.4342L59.4703 62.0392C58.6203 63.1272 57.0492 63.3201 55.9612 62.4701C54.8731 61.6201 54.6802 60.049 55.5302 58.9609L61.4716 51.356C64.0966 47.9959 63.2789 43.0794 59.6969 40.7287C56.6816 38.7499 52.6608 39.2794 50.2781 41.9669C49.3622 43.0001 47.7821 43.0951 46.749 42.1791C46.6532 42.0942 46.5655 42.0036 46.4859 41.9082ZM41.2463 70.4022C41.8526 71.6427 41.3385 73.1398 40.098 73.7461L37.0291 75.2461C35.7887 75.8524 34.2915 75.3383 33.6852 74.0979C33.0789 72.8574 33.593 71.3603 34.8335 70.754L37.9024 69.254C39.1429 68.6477 40.64 69.1618 41.2463 70.4022Z" fill="#0966FF"/>
</svg>
