<svg width="100" height="100" viewBox="0 0 100 100" fill="none" xmlns="http://www.w3.org/2000/svg">
<rect width="100" height="100" rx="20" fill="white"/>
<path fill-rule="evenodd" clip-rule="evenodd" d="M20 49.6963C20 33.1277 33.4315 19.6963 50 19.6963C66.5685 19.6963 80 33.1277 80 49.6963C80 66.2648 66.5685 79.6963 50 79.6963C33.4315 79.6963 20 66.2648 20 49.6963ZM50 24.6963C36.1929 24.6963 25 35.8892 25 49.6963C25 63.5034 36.1929 74.6963 50 74.6963C63.8071 74.6963 75 63.5034 75 49.6963C75 35.8892 63.8071 24.6963 50 24.6963Z" fill="#0966FF"/>
<path fill-rule="evenodd" clip-rule="evenodd" d="M20 50.6963C20 34.1277 33.4315 20.6963 50 20.6963C66.5685 20.6963 80 34.1277 80 50.6963C80 67.2648 66.5685 80.6963 50 80.6963C33.4315 80.6963 20 67.2648 20 50.6963ZM50 25.6963C36.1929 25.6963 25 36.8892 25 50.6963C25 64.5034 36.1929 75.6963 50 75.6963C63.8071 75.6963 75 64.5034 75 50.6963C75 36.8892 63.8071 25.6963 50 25.6963Z" fill="#0966FF"/>
<path fill-rule="evenodd" clip-rule="evenodd" d="M31.2715 71.1911C32.5075 65.2008 37.8081 60.6963 44.1664 60.6963H56.833C63.1914 60.6963 68.492 65.2008 69.7279 71.1911L64.8311 72.2015C64.0648 68.4875 60.772 65.6963 56.833 65.6963H44.1664C40.2274 65.6963 36.9346 68.4875 36.1683 72.2015L31.2715 71.1911Z" fill="#0966FF"/>
<path fill-rule="evenodd" clip-rule="evenodd" d="M50.5 38.6963C46.9101 38.6963 44 41.6064 44 45.1963C44 48.7861 46.9101 51.6963 50.5 51.6963C54.0899 51.6963 57 48.7861 57 45.1963C57 41.6064 54.0899 38.6963 50.5 38.6963ZM39 45.1963C39 38.845 44.1487 33.6963 50.5 33.6963C56.8513 33.6963 62 38.845 62 45.1963C62 51.5476 56.8513 56.6963 50.5 56.6963C44.1487 56.6963 39 51.5476 39 45.1963Z" fill="#0966FF"/>
<path fill-rule="evenodd" clip-rule="evenodd" d="M32 52.1963C32 48.6064 29.0899 45.6963 25.5 45.6963V40.6963C31.8513 40.6963 37 45.845 37 52.1963C37 58.5476 31.8513 63.6963 25.5 63.6963V58.6963C29.0899 58.6963 32 55.7861 32 52.1963Z" fill="#0966FF"/>
<path fill-rule="evenodd" clip-rule="evenodd" d="M75.5 45.6963C71.9101 45.6963 69 48.6064 69 52.1963C69 55.7861 71.9101 58.6963 75.5 58.6963V63.6963C69.1487 63.6963 64 58.5476 64 52.1963C64 45.845 69.1487 40.6963 75.5 40.6963V45.6963Z" fill="#0966FF"/>
</svg>
