<svg width="59" height="59" viewBox="0 0 59 59" fill="none" xmlns="http://www.w3.org/2000/svg">
<path fill-rule="evenodd" clip-rule="evenodd" d="M0 14.5C0 6.49187 6.49187 0 14.5 0H44.5C52.5081 0 59 6.49187 59 14.5V44.5C59 52.5081 52.5081 59 44.5 59H14.5C6.49187 59 0 52.5081 0 44.5V14.5ZM14.5 5C9.25329 5 5 9.25329 5 14.5V44.5C5 49.7467 9.25329 54 14.5 54H44.5C49.7467 54 54 49.7467 54 44.5V14.5C54 9.25329 49.7467 5 44.5 5H14.5Z" fill="#0966FF"/>
<path fill-rule="evenodd" clip-rule="evenodd" d="M29.5 13.5C30.8807 13.5 32 14.6193 32 16V41.5C32 42.8807 30.8807 44 29.5 44C28.1193 44 27 42.8807 27 41.5V16C27 14.6193 28.1193 13.5 29.5 13.5Z" fill="#0966FF"/>
<path fill-rule="evenodd" clip-rule="evenodd" d="M44.75 28.75C44.75 30.1307 43.6307 31.25 42.25 31.25L16.75 31.25C15.3693 31.25 14.25 30.1307 14.25 28.75C14.25 27.3693 15.3693 26.25 16.75 26.25L42.25 26.25C43.6307 26.25 44.75 27.3693 44.75 28.75Z" fill="#0966FF"/>
</svg>
