<svg width="100" height="100" viewBox="0 0 100 100" fill="none" xmlns="http://www.w3.org/2000/svg">
<rect width="100" height="100" rx="20" fill="white"/>
<path fill-rule="evenodd" clip-rule="evenodd" d="M51.634 25.7258C50.3759 24.7581 48.6241 24.7581 47.366 25.7258L27.366 41.1104C26.5047 41.773 26 42.798 26 43.8846V71.9302C26 73.8632 27.567 75.4302 29.5 75.4302H69.5C71.433 75.4302 73 73.8632 73 71.9302V43.8846C73 42.798 72.4953 41.773 71.634 41.1104L51.634 25.7258ZM44.3175 21.7627C47.3728 19.4124 51.6272 19.4124 54.6825 21.7627L74.6825 37.1473C76.7743 38.7563 78 41.2456 78 43.8846V71.9302C78 76.6246 74.1944 80.4302 69.5 80.4302H29.5C24.8056 80.4302 21 76.6246 21 71.9302V43.8846C21 41.2456 22.2257 38.7563 24.3175 37.1473L44.3175 21.7627Z" fill="#0966FF"/>
<path fill-rule="evenodd" clip-rule="evenodd" d="M38 57.9302C38 54.3403 40.9101 51.4302 44.5 51.4302H53.5C57.0899 51.4302 60 54.3403 60 57.9302V77.9302H55V57.9302C55 57.1017 54.3284 56.4302 53.5 56.4302H44.5C43.6716 56.4302 43 57.1017 43 57.9302V77.9302H38V57.9302Z" fill="#0966FF"/>
</svg>
