<svg width="100" height="100" viewBox="0 0 100 100" fill="none" xmlns="http://www.w3.org/2000/svg">
<rect width="100" height="100" rx="20" fill="white"/>
<path fill-rule="evenodd" clip-rule="evenodd" d="M26.5 73.6963H50.5C51.8807 73.6963 53 74.8156 53 76.1963C53 77.577 51.8807 78.6963 50.5 78.6963H26.5V73.6963Z" fill="#0966FF"/>
<path fill-rule="evenodd" clip-rule="evenodd" d="M18 36.1963C18 33.711 20.0147 31.6963 22.5 31.6963H29.5C31.9853 31.6963 34 33.711 34 36.1963V71.1963C34 75.3384 30.6421 78.6963 26.5 78.6963H25.5C21.3579 78.6963 18 75.3384 18 71.1963V36.1963ZM23 36.6963V71.1963C23 72.577 24.1193 73.6963 25.5 73.6963H26.5C27.8807 73.6963 29 72.577 29 71.1963V36.6963H23Z" fill="#0966FF"/>
<path fill-rule="evenodd" clip-rule="evenodd" d="M29 25.1963C29 21.0542 32.3579 17.6963 36.5 17.6963H71.5C75.6421 17.6963 79 21.0542 79 25.1963V41.1963C79 42.577 77.8807 43.6963 76.5 43.6963C75.1193 43.6963 74 42.577 74 41.1963V25.1963C74 23.8156 72.8807 22.6963 71.5 22.6963H36.5C35.1193 22.6963 34 23.8156 34 25.1963V57.1963H29V25.1963Z" fill="#0966FF"/>
<path fill-rule="evenodd" clip-rule="evenodd" d="M41 51.1963C41 49.8156 42.1193 48.6963 43.5 48.6963H56.5C57.8807 48.6963 59 49.8156 59 51.1963C59 52.577 57.8807 53.6963 56.5 53.6963H43.5C42.1193 53.6963 41 52.577 41 51.1963Z" fill="#0966FF"/>
<path fill-rule="evenodd" clip-rule="evenodd" d="M41 62.1963C41 60.8156 42.1193 59.6963 43.5 59.6963H51.5C52.8807 59.6963 54 60.8156 54 62.1963C54 63.577 52.8807 64.6963 51.5 64.6963H43.5C42.1193 64.6963 41 63.577 41 62.1963Z" fill="#0966FF"/>
<path d="M50.5 34.6963C50.5 37.1816 48.4853 39.1963 46 39.1963C43.5147 39.1963 41.5 37.1816 41.5 34.6963C41.5 32.211 43.5147 30.1963 46 30.1963C48.4853 30.1963 50.5 32.211 50.5 34.6963Z" fill="#0966FF"/>
<path fill-rule="evenodd" clip-rule="evenodd" d="M53.0577 52.0185C59.1675 43.7237 71.5454 43.5422 77.813 51.763C79.7332 54.2817 80.7898 57.2527 80.972 60.2675C81.2798 65.3591 79.0393 69.5026 76.1905 72.8346C73.6936 75.7551 70.5369 78.2656 67.8813 80.3775C67.5508 80.6403 67.2281 80.897 66.9153 81.1475C66.0018 81.8793 64.7029 81.8793 63.7894 81.1475C63.5808 80.9804 63.3681 80.8106 63.1521 80.6381C60.4278 78.4625 57.166 75.8577 54.6199 72.7977C51.833 69.4485 49.6852 65.3025 50.038 60.2444C50.2411 57.3334 51.2527 54.4691 53.0577 52.0185ZM73.8367 54.7944C69.613 49.2544 61.2369 49.345 57.0835 54.9838C55.8556 56.6509 55.1647 58.6025 55.0259 60.5923C54.7949 63.9045 56.1484 66.8175 58.4634 69.5997C60.4082 71.937 62.8765 74.0031 65.3553 75.996C67.8653 73.9925 70.3843 71.9315 72.3902 69.5854C74.7737 66.7976 76.1816 63.8861 75.9811 60.5692C75.8572 58.5182 75.1395 56.5032 73.8367 54.7944Z" fill="#0966FF"/>
<path d="M69.5 60.6963C69.5 63.1816 67.4853 65.1963 65 65.1963C62.5147 65.1963 60.5 63.1816 60.5 60.6963C60.5 58.211 62.5147 56.1963 65 56.1963C67.4853 56.1963 69.5 58.211 69.5 60.6963Z" fill="#0966FF"/>
</svg>
