<svg width="100" height="100" viewBox="0 0 100 100" fill="none" xmlns="http://www.w3.org/2000/svg">
<rect width="100" height="100" rx="20" fill="white"/>
<path fill-rule="evenodd" clip-rule="evenodd" d="M20 50C20 33.4315 33.4315 20 50 20C66.5685 20 80 33.4315 80 50C80 66.5685 66.5685 80 50 80C33.4315 80 20 66.5685 20 50ZM50 25C36.1929 25 25 36.1929 25 50C25 63.8071 36.1929 75 50 75C63.8071 75 75 63.8071 75 50C75 36.1929 63.8071 25 50 25Z" fill="#0966FF"/>
<path fill-rule="evenodd" clip-rule="evenodd" d="M37.6213 58.6998C38.5322 57.6622 40.1118 57.5595 41.1494 58.4704C46.281 62.9754 54.7191 62.9754 59.8507 58.4704C60.8883 57.5595 62.4679 57.6622 63.3788 58.6998C64.2897 59.7374 64.187 61.317 63.1494 62.2279C56.1307 68.3896 44.8694 68.3896 37.8507 62.2279C36.8131 61.317 36.7104 59.7374 37.6213 58.6998Z" fill="#0966FF"/>
<path d="M43.5 45C43.5 47.4853 41.4853 49.5 39 49.5C36.5147 49.5 34.5 47.4853 34.5 45C34.5 42.5147 36.5147 40.5 39 40.5C41.4853 40.5 43.5 42.5147 43.5 45Z" fill="#0966FF"/>
<path d="M65.5 45C65.5 47.4853 63.4853 49.5 61 49.5C58.5147 49.5 56.5 47.4853 56.5 45C56.5 42.5147 58.5147 40.5 61 40.5C63.4853 40.5 65.5 42.5147 65.5 45Z" fill="#0966FF"/>
</svg>
