<svg width="100" height="100" viewBox="0 0 100 100" fill="none" xmlns="http://www.w3.org/2000/svg">
<rect width="100" height="100" rx="20" fill="white"/>
<path fill-rule="evenodd" clip-rule="evenodd" d="M78.0514 20.5396C78.6506 21.0138 79 21.7359 79 22.5V63C79 64.3807 77.8807 65.5 76.5 65.5C75.1193 65.5 74 64.3807 74 63V39.1811L43 46.335V68.5C43 69.8807 41.8807 71 40.5 71C39.1193 71 38 69.8807 38 68.5V31C38 29.8406 38.7971 28.8333 39.9255 28.5669L75.9255 20.0669C76.6692 19.8913 77.4523 20.0655 78.0514 20.5396ZM43 41.2035L73.9379 34.064C73.9586 34.0593 73.9793 34.0548 74 34.0505V25.659L43 32.9785V41.2035Z" fill="#0966FF"/>
<path fill-rule="evenodd" clip-rule="evenodd" d="M32 63C28.6863 63 26 65.6863 26 69C26 72.3137 28.6863 75 32 75C35.3137 75 38 72.3137 38 69C38 65.6863 35.3137 63 32 63ZM21 69C21 62.9249 25.9249 58 32 58C38.0751 58 43 62.9249 43 69C43 75.0751 38.0751 80 32 80C25.9249 80 21 75.0751 21 69Z" fill="#0966FF"/>
<path fill-rule="evenodd" clip-rule="evenodd" d="M68 58C64.6863 58 62 60.6863 62 64C62 67.3137 64.6863 70 68 70C71.3137 70 74 67.3137 74 64C74 60.6863 71.3137 58 68 58ZM57 64C57 57.9249 61.9249 53 68 53C74.0751 53 79 57.9249 79 64C79 70.0751 74.0751 75 68 75C61.9249 75 57 70.0751 57 64Z" fill="#0966FF"/>
</svg>
