<svg width="100" height="100" viewBox="0 0 100 100" fill="none" xmlns="http://www.w3.org/2000/svg">
<rect width="100" height="100" rx="20" fill="white"/>
<path fill-rule="evenodd" clip-rule="evenodd" d="M18 50.1963C18 32.7993 32.103 18.6963 49.5 18.6963C66.897 18.6963 81 32.7993 81 50.1963C81 67.5933 66.897 81.6963 49.5 81.6963C32.103 81.6963 18 67.5933 18 50.1963ZM49.5 23.6963C34.8645 23.6963 23 35.5607 23 50.1963C23 64.8318 34.8645 76.6963 49.5 76.6963C64.1355 76.6963 76 64.8318 76 50.1963C76 35.5607 64.1355 23.6963 49.5 23.6963Z" fill="#0966FF"/>
<path fill-rule="evenodd" clip-rule="evenodd" d="M36.6729 28.5416C39.5405 22.9976 43.9452 18.6963 49.5 18.6963C55.0548 18.6963 59.4595 22.9976 62.3271 28.5416C65.2602 34.2122 67 41.8722 67 50.1963C67 58.5204 65.2602 66.1804 62.3271 71.8509C59.4595 77.395 55.0548 81.6963 49.5 81.6963C43.9452 81.6963 39.5405 77.395 36.6729 71.8509C33.7398 66.1804 32 58.5204 32 50.1963C32 41.8722 33.7398 34.2122 36.6729 28.5416ZM41.1139 30.8387C38.6181 35.6641 37 42.5041 37 50.1963C37 57.8885 38.6181 64.7284 41.1139 69.5538C43.6752 74.5057 46.7705 76.6963 49.5 76.6963C52.2295 76.6963 55.3248 74.5057 57.8861 69.5538C60.3819 64.7284 62 57.8885 62 50.1963C62 42.5041 60.3819 35.6641 57.8861 30.8387C55.3248 25.8869 52.2295 23.6963 49.5 23.6963C46.7705 23.6963 43.6752 25.8869 41.1139 30.8387Z" fill="#0966FF"/>
<path fill-rule="evenodd" clip-rule="evenodd" d="M19 50.1963C19 48.8156 20.1193 47.6963 21.5 47.6963H79C80.3807 47.6963 81.5 48.8156 81.5 50.1963C81.5 51.577 80.3807 52.6963 79 52.6963H21.5C20.1193 52.6963 19 51.577 19 50.1963Z" fill="#0966FF"/>
</svg>
