<svg width="120" height="120" viewBox="0 0 120 120" fill="none" xmlns="http://www.w3.org/2000/svg">
<path d="M120 59.9999C120 93.1498 93.1498 120 59.9999 120C26.8499 120 0 93.1498 0 59.9999C0 26.85 26.8499 0 59.9999 0C93.1498 0 120 27 120 59.9999Z" fill="url(#paint0_radial_1364_28)"/>
<path d="M120 59.9999C120 93.1498 93.1498 120 59.9999 120C26.8499 120 0 93.1498 0 59.9999C0 26.85 26.8499 0 59.9999 0C93.1498 0 120 27 120 59.9999Z" fill="url(#paint1_radial_1364_28)"/>
<path d="M43.1992 93.5998C43.1992 94.4998 43.7992 95.0998 44.6992 95.0998C46.9492 95.0998 49.9492 91.0498 59.8492 91.0498C69.7491 91.0498 72.8992 95.0998 74.9992 95.0998C76.0492 95.0998 76.4992 94.4998 76.4992 93.5998C76.4992 91.0498 71.2492 82.0498 59.6992 82.0498C48.5992 82.0498 43.1992 90.8998 43.1992 93.5998Z" fill="url(#paint2_linear_1364_28)"/>
<path d="M10.6491 110.25C5.54913 105.15 5.09917 96.8998 9.74916 91.1998L19.4991 79.4998C19.9491 78.8998 20.9991 78.8998 21.4491 79.4998L31.1991 91.1998C35.8491 96.7498 35.549 105 30.299 110.25C25.0491 115.8 16.1991 115.8 10.6491 110.25Z" fill="url(#paint3_linear_1364_28)"/>
<path d="M20.5492 112.5C17.2492 112.5 14.2492 111.3 11.8492 108.9C7.3492 104.4 7.0492 97.3501 11.0992 92.4001L20.5492 81.1501L29.9992 92.4001C34.0492 97.3501 33.7492 104.4 29.2492 108.9C26.9992 111.3 23.8491 112.5 20.5492 112.5Z" fill="url(#paint4_radial_1364_28)"/>
<path d="M10.6489 102.6C8.99892 100.95 8.9989 98.3998 10.3489 96.7498L13.3489 93.1499C13.4989 92.9999 13.7989 92.9999 13.9489 93.1499L16.9489 96.7498C18.4489 98.5498 18.2989 101.1 16.6489 102.6C15.1489 104.4 12.2989 104.4 10.6489 102.6Z" fill="url(#paint5_linear_1364_28)"/>
<path d="M76.498 67.1997C76.498 60.8997 80.698 55.9497 85.798 55.9497C90.8979 55.9497 95.098 61.0497 95.098 67.1997C95.098 69.7497 94.348 72.1497 93.148 74.0997C92.848 74.5497 92.548 74.8497 92.098 75.1497C91.648 75.4497 91.198 75.5997 90.748 75.7497C87.598 76.4997 84.148 76.4997 80.998 75.7497C80.548 75.5997 79.948 75.4497 79.648 75.1497C79.198 74.8497 78.898 74.5497 78.598 74.0997C77.098 71.9997 76.498 69.5997 76.498 67.1997Z" fill="url(#paint6_radial_1364_28)"/>
<path d="M84.4507 60.1497C85.5007 61.3497 85.5007 63.7497 84.6007 65.5497C83.7007 67.3497 82.0507 67.6497 81.0007 66.4497C79.9507 65.2497 79.9507 62.8497 80.8507 61.0497C81.7507 59.2497 83.4007 58.9497 84.4507 60.1497Z" fill="#4E506A"/>
<path d="M43.6488 67.1997C43.6488 60.8997 39.4488 55.9497 34.3488 55.9497C29.2488 55.9497 25.0488 61.0497 25.0488 67.1997C25.0488 69.7497 25.7989 72.1497 26.9989 74.0997C27.2989 74.5497 27.5988 74.8497 28.0488 75.1497C28.4988 75.4497 28.9489 75.5997 29.3989 75.7497C32.5488 76.4997 35.9988 76.4997 39.1488 75.7497C39.5988 75.5997 40.1989 75.4497 40.4989 75.1497C40.9489 74.8497 41.2488 74.5497 41.5488 74.0997C42.8988 71.9997 43.6488 69.5997 43.6488 67.1997Z" fill="url(#paint7_radial_1364_28)"/>
<path d="M30.0007 60.1497C28.9507 61.3497 28.9507 63.7497 29.8507 65.5497C30.7507 67.3497 32.4007 67.6497 33.4507 66.4497C34.5007 65.2497 34.5007 62.8497 33.6007 61.0497C32.7007 59.2497 31.0507 58.9497 30.0007 60.1497Z" fill="#4E506A"/>
<path d="M82.0486 40.0502C90.4485 41.8502 95.2486 45.9002 100.649 51.3002C102.449 53.1002 100.049 56.5502 97.7985 54.4502C94.1985 51.1502 89.3986 47.5502 81.1486 45.9002C76.9486 45.0002 78.5986 39.3002 82.0486 40.0502Z" fill="url(#paint8_linear_1364_28)"/>
<path d="M37.9494 40.0502C29.5494 41.8502 24.7494 45.9002 19.3494 51.3002C17.5494 53.1002 19.9494 56.5502 22.1994 54.4502C25.7994 51.1502 30.5994 47.5502 38.8494 45.9002C43.0494 45.0002 41.3994 39.3002 37.9494 40.0502Z" fill="url(#paint9_linear_1364_28)"/>
<defs>
<radialGradient id="paint0_radial_1364_28" cx="0" cy="0" r="1" gradientUnits="userSpaceOnUse" gradientTransform="translate(60.0584 27.0733) rotate(90.1003) scale(92.9773 133.486)">
<stop stop-color="#FFED85"/>
<stop offset="0.1898" stop-color="#FFE180"/>
<stop offset="0.5295" stop-color="#FFC273"/>
<stop offset="0.9773" stop-color="#FF915E"/>
<stop offset="1" stop-color="#FF8E5D"/>
</radialGradient>
<radialGradient id="paint1_radial_1364_28" cx="0" cy="0" r="1" gradientUnits="userSpaceOnUse" gradientTransform="translate(32.7396 29.7385) scale(99.9021 99.9021)">
<stop stop-color="#FFEA84" stop-opacity="0"/>
<stop offset="1" stop-color="#F08423" stop-opacity="0.34"/>
</radialGradient>
<linearGradient id="paint2_linear_1364_28" x1="59.9734" y1="82.0513" x2="59.8311" y2="95.2637" gradientUnits="userSpaceOnUse">
<stop stop-color="#3F1D04"/>
<stop offset="1" stop-color="#7E2307"/>
</linearGradient>
<linearGradient id="paint3_linear_1364_28" x1="20.5002" y1="114.363" x2="20.5002" y2="79.0402" gradientUnits="userSpaceOnUse">
<stop stop-color="#20BBF2"/>
<stop offset="1" stop-color="#007EDB"/>
</linearGradient>
<radialGradient id="paint4_radial_1364_28" cx="0" cy="0" r="1" gradientUnits="userSpaceOnUse" gradientTransform="translate(19.7889 105.519) scale(23.1402 23.1402)">
<stop offset="0.0961217" stop-color="#2FD7FC"/>
<stop offset="1" stop-color="#007EDB"/>
</radialGradient>
<linearGradient id="paint5_linear_1364_28" x1="13.6786" y1="103.95" x2="13.6786" y2="92.9537" gradientUnits="userSpaceOnUse">
<stop stop-color="#A8E3FF" stop-opacity="0.799"/>
<stop offset="1" stop-color="#6AE1FF" stop-opacity="0"/>
</linearGradient>
<radialGradient id="paint6_radial_1364_28" cx="0" cy="0" r="1" gradientUnits="userSpaceOnUse" gradientTransform="translate(85.6435 68.3406) rotate(90) scale(11.4648 12.2507)">
<stop stop-color="#3B426A"/>
<stop offset="0.9792" stop-color="#191A33"/>
</radialGradient>
<radialGradient id="paint7_radial_1364_28" cx="0" cy="0" r="1" gradientUnits="userSpaceOnUse" gradientTransform="translate(34.391 68.3406) rotate(90) scale(11.4648 12.2507)">
<stop stop-color="#3B426A"/>
<stop offset="0.9792" stop-color="#191A33"/>
</radialGradient>
<linearGradient id="paint8_linear_1364_28" x1="89.9657" y1="37.0589" x2="89.9657" y2="54.0427" gradientUnits="userSpaceOnUse">
<stop stop-color="#E78E0D"/>
<stop offset="1" stop-color="#CB6000"/>
</linearGradient>
<linearGradient id="paint9_linear_1364_28" x1="30.0321" y1="37.0589" x2="30.0321" y2="54.0427" gradientUnits="userSpaceOnUse">
<stop stop-color="#E78E0D"/>
<stop offset="1" stop-color="#CB6000"/>
</linearGradient>
</defs>
</svg>
