<svg width="100" height="100" viewBox="0 0 100 100" fill="none" xmlns="http://www.w3.org/2000/svg">
<rect width="100" height="100" rx="20" fill="white"/>
<path fill-rule="evenodd" clip-rule="evenodd" d="M58.0458 23.7169C57.8008 21.4303 55.8711 19.6963 53.5714 19.6963H45.878C43.6575 19.6963 41.8574 21.4964 41.8574 23.7169C41.8574 28.6963 35.9149 31.9665 31.1914 29.8749C29.0886 28.9438 26.6221 29.7479 25.4722 31.7395L21.7694 38.153C20.6195 40.1447 21.1564 42.6828 23.0141 44.0383C27.1872 47.0831 27.1872 53.3095 23.014 56.3543C21.1563 57.7098 20.6194 60.2479 21.7693 62.2395L25.4721 68.653C26.622 70.6446 29.0885 71.4488 31.1913 70.5177C35.9148 68.426 41.3071 71.5392 41.8574 76.6757C42.1024 78.9623 44.0321 80.6963 46.3318 80.6963L53.5714 80.6963C55.8711 80.6963 57.8008 78.9623 58.0458 76.6757C58.5961 71.5392 63.9884 68.426 68.712 70.5177C70.8147 71.4488 73.2812 70.6447 74.4311 68.653L78.1339 62.2395C79.2838 60.2479 78.747 57.7098 76.8892 56.3543C72.716 53.3095 72.716 47.0831 76.8891 44.0383C78.7469 42.6828 79.2837 40.1447 78.1338 38.1531L74.431 31.7395C73.2811 29.7479 70.8146 28.9438 68.7119 29.8749C63.9884 31.9665 58.5961 28.8534 58.0458 23.7169ZM29.416 34.6219C36.9967 37.6717 45.4583 32.7862 46.6075 24.6963H53.1301C54.2793 32.7864 62.741 37.6717 70.3218 34.6219L73.5832 40.2707C67.1515 45.3109 67.1517 55.0817 73.5833 60.1219L70.322 65.7707C62.7412 62.7209 54.2793 67.6062 53.1301 75.6963H46.6075C45.4583 67.6063 36.9966 62.7209 29.4159 65.7707L26.1545 60.1219C32.5861 55.0817 32.5863 45.3109 26.1547 40.2707L29.416 34.6219Z" fill="#0966FF"/>
<path fill-rule="evenodd" clip-rule="evenodd" d="M49.5 41.6963C44.8056 41.6963 41 45.5019 41 50.1963C41 54.8907 44.8056 58.6963 49.5 58.6963C54.1944 58.6963 58 54.8907 58 50.1963C58 45.5019 54.1944 41.6963 49.5 41.6963ZM36 50.1963C36 42.7404 42.0442 36.6963 49.5 36.6963C56.9558 36.6963 63 42.7404 63 50.1963C63 57.6521 56.9558 63.6963 49.5 63.6963C42.0442 63.6963 36 57.6521 36 50.1963Z" fill="#0966FF"/>
</svg>
