<svg width="100" height="100" viewBox="0 0 100 100" fill="none" xmlns="http://www.w3.org/2000/svg">
<rect width="100" height="100" rx="20" fill="white"/>
<path fill-rule="evenodd" clip-rule="evenodd" d="M50.1969 21.2801C50.6811 22.0858 50.6725 23.095 50.1745 23.8923C48.1629 27.1128 47 30.9168 47 35.0001C47 46.5981 56.402 56.0001 68 56.0001C70.7297 56.0001 73.332 55.4806 75.7177 54.5373C76.5918 54.1917 77.5859 54.3655 78.2908 54.9873C78.9956 55.6091 79.2922 56.5737 79.0584 57.4841C75.7331 70.43 63.9873 80.0001 50 80.0001C33.4315 80.0001 20 66.5687 20 50.0001C20 34.1442 32.2994 21.1632 47.8798 20.074C48.8175 20.0084 49.7127 20.4744 50.1969 21.2801ZM43.6726 25.8074C32.93 28.609 25 38.3793 25 50.0001C25 63.8072 36.1929 75.0001 50 75.0001C60.0219 75.0001 68.6708 69.1013 72.6565 60.5839C71.1447 60.8574 69.5884 61.0001 68 61.0001C53.6406 61.0001 42 49.3595 42 35.0001C42 31.766 42.5915 28.6669 43.6726 25.8074Z" fill="#0966FF"/>
</svg>
