<svg width="100" height="100" viewBox="0 0 100 100" fill="none" xmlns="http://www.w3.org/2000/svg">
<rect width="100" height="100" rx="20" fill="white"/>
<path fill-rule="evenodd" clip-rule="evenodd" d="M20.5 35C20.5 26.9919 26.9919 20.5 35 20.5H65C73.0081 20.5 79.5 26.9919 79.5 35V65C79.5 73.0081 73.0081 79.5 65 79.5H35C26.9919 79.5 20.5 73.0081 20.5 65V35ZM35 25.5C29.7533 25.5 25.5 29.7533 25.5 35V65C25.5 70.2467 29.7533 74.5 35 74.5H65C70.2467 74.5 74.5 70.2467 74.5 65V35C74.5 29.7533 70.2467 25.5 65 25.5H35Z" fill="#0966FF"/>
<path fill-rule="evenodd" clip-rule="evenodd" d="M21.5 39C21.5 37.6193 22.6193 36.5 24 36.5H75C76.3807 36.5 77.5 37.6193 77.5 39C77.5 40.3807 76.3807 41.5 75 41.5H24C22.6193 41.5 21.5 40.3807 21.5 39Z" fill="#0966FF"/>
<path fill-rule="evenodd" clip-rule="evenodd" d="M36.0066 21.206C37.2735 20.657 38.7455 21.239 39.2945 22.5059L45.7945 37.5059C46.3435 38.7728 45.7615 40.2448 44.4947 40.7938C43.2278 41.3428 41.7557 40.7608 41.2067 39.4939L34.7067 24.4939C34.1578 23.227 34.7397 21.755 36.0066 21.206ZM54.0066 21.206C55.2735 20.657 56.7455 21.239 57.2945 22.5059L63.7945 37.5059C64.3435 38.7728 63.7615 40.2448 62.4947 40.7938C61.2278 41.3428 59.7557 40.7608 59.2067 39.4939L52.7067 24.4939C52.1578 23.227 52.7397 21.755 54.0066 21.206Z" fill="#0966FF"/>
<path d="M43 50.4969C43 48.9501 44.6808 47.9888 46.014 48.7731L57.0694 55.2762C58.384 56.0495 58.384 57.9507 57.0694 58.724L46.014 65.2271C44.6808 66.0114 43 65.0501 43 63.5033V50.4969Z" fill="#0966FF"/>
</svg>
