<svg width="120" height="120" viewBox="0 0 120 120" fill="none" xmlns="http://www.w3.org/2000/svg">
<path d="M120 59.9999C120 93.1498 93.1498 120 59.9999 120C26.8499 120 0 93.1498 0 59.9999C0 26.85 26.8499 0 59.9999 0C93.1498 0 120 26.85 120 59.9999Z" fill="url(#paint0_radial_1364_44)"/>
<path d="M120 59.9999C120 93.1498 93.1498 120 59.9999 120C26.8499 120 0 93.1498 0 59.9999C0 26.85 26.8499 0 59.9999 0C93.1498 0 120 26.85 120 59.9999Z" fill="url(#paint1_radial_1364_44)"/>
<path d="M42.4481 81.1498C41.2481 94.9497 47.8481 104.4 59.9981 104.4C72.1481 104.4 78.7481 94.9497 77.5481 81.1498C76.3481 67.3498 69.2981 59.5498 59.9981 59.5498C50.8481 59.6998 43.6481 67.4998 42.4481 81.1498Z" fill="url(#paint2_linear_1364_44)"/>
<path d="M92.8482 24.1498C89.8482 20.2498 85.0482 18.8998 78.5982 22.1998C77.2482 22.9498 75.5982 22.3498 74.8482 20.9998C74.0982 19.6498 74.6982 17.9998 76.0482 17.2498C85.0482 12.7498 92.6981 14.9998 97.1981 20.8498C98.0981 22.0498 97.9481 23.8498 96.7481 24.7498C95.5481 25.4998 93.7482 25.3498 92.8482 24.1498Z" fill="#E27421"/>
<path d="M27.2977 24.1498C30.2977 20.2498 35.0977 18.8998 41.5477 22.1998C42.8977 22.9498 44.5477 22.3498 45.2977 20.9998C46.0477 19.6498 45.4477 17.9998 44.0977 17.2498C35.0978 12.7498 27.4477 14.9998 22.9477 20.8498C22.0477 22.0498 22.1977 23.8498 23.3977 24.7498C24.5977 25.4998 26.3977 25.3498 27.2977 24.1498Z" fill="#E27421"/>
<path d="M72.5996 42.8994C72.5996 36.7494 77.2496 31.6494 82.7996 31.6494C88.4996 31.6494 92.9995 36.5994 92.9995 42.8994C92.9995 49.0494 88.3496 54.1494 82.7996 54.1494C77.2496 54.1494 72.5996 49.0494 72.5996 42.8994Z" fill="url(#paint3_radial_1364_44)"/>
<path d="M77.0996 38.5495C77.0996 36.5995 78.2995 34.9495 79.6495 34.9495C80.9995 34.9495 82.1995 36.5995 82.1995 38.5495C82.1995 40.4995 80.9995 42.1495 79.6495 42.1495C78.2995 42.1495 77.0996 40.4995 77.0996 38.5495Z" fill="#4E506A"/>
<path d="M47.5504 42.8994C47.5504 36.7494 42.9004 31.6494 37.3504 31.6494C31.6505 31.6494 27.1504 36.5994 27.1504 42.8994C27.1504 49.0494 31.8005 54.1494 37.3504 54.1494C42.9004 54.1494 47.5504 49.0494 47.5504 42.8994Z" fill="url(#paint4_radial_1364_44)"/>
<path d="M35.5512 38.5495C35.5512 36.5995 34.3512 34.9495 33.0012 34.9495C31.6512 34.9495 30.4512 36.5995 30.4512 38.5495C30.4512 40.4995 31.6512 42.1495 33.0012 42.1495C34.3512 42.1495 35.5512 40.4995 35.5512 38.5495Z" fill="#4E506A"/>
<defs>
<radialGradient id="paint0_radial_1364_44" cx="0" cy="0" r="1" gradientUnits="userSpaceOnUse" gradientTransform="translate(59.1578 49.6699) rotate(90.1003) scale(81.1448 83.858)">
<stop stop-color="#FFED85"/>
<stop offset="0.1898" stop-color="#FFE180"/>
<stop offset="0.5295" stop-color="#FFC273"/>
<stop offset="0.9773" stop-color="#FF915E"/>
<stop offset="1" stop-color="#FF8E5D"/>
</radialGradient>
<radialGradient id="paint1_radial_1364_44" cx="0" cy="0" r="1" gradientUnits="userSpaceOnUse" gradientTransform="translate(32.7622 29.73) scale(99.9228 99.9228)">
<stop stop-color="#FFEA84" stop-opacity="0"/>
<stop offset="1" stop-color="#F08423" stop-opacity="0.34"/>
</radialGradient>
<linearGradient id="paint2_linear_1364_44" x1="59.9981" y1="59.6782" x2="59.9981" y2="104.401" gradientUnits="userSpaceOnUse">
<stop stop-color="#3F1D04"/>
<stop offset="1" stop-color="#7E2307"/>
</linearGradient>
<radialGradient id="paint3_radial_1364_44" cx="0" cy="0" r="1" gradientUnits="userSpaceOnUse" gradientTransform="translate(82.9203 42.8993) scale(10.7262 10.7262)">
<stop stop-color="#2C445F"/>
<stop offset="0.9792" stop-color="#191A33"/>
</radialGradient>
<radialGradient id="paint4_radial_1364_44" cx="0" cy="0" r="1" gradientUnits="userSpaceOnUse" gradientTransform="translate(37.193 42.8993) rotate(180) scale(10.7262 10.7262)">
<stop stop-color="#2C445F"/>
<stop offset="0.9792" stop-color="#191A33"/>
</radialGradient>
</defs>
</svg>
